# xmcd
#
# Track frame offsets: 
#        150
#        24320
#        48343
#        67584
#        93721
#        111110
#        131562
#        157567
#        185447
#        209490
#
# Disc length: 3103 seconds
#
# Revision: 0
# Processed by: cddbd v1.5.2PL0 Copyright (c) Steve Scherf et al.
# Submitted via: ExactAudioCopy v1.0b3
#
DISCID=790c1d0a
DTITLE=Phi Nhung - Dem Giot Sau Roi
DYEAR=2002
DGENRE=
TTITLE0=Lo lam
TTITLE1=Trai mong toi
TTITLE2=Loi ve xom nho
TTITLE3=Tinh cho
TTITLE4=Co em ve
TTITLE5=Con gai cua Me
TTITLE6=Dem giot sau roi
TTITLE7=20 nam tinh dep mua chom chom
TTITLE8=An nan
TTITLE9=Yeu dau Ha Tien
EXTD=
EXTT0=
EXTT1=
EXTT2=
EXTT3=
EXTT4=
EXTT5=
EXTT6=
EXTT7=
EXTT8=
EXTT9=
PLAYORDER=
